HIERARCHY
ROOT hip
{
  OFFSET 0 0 0
  CHANNELS 6 Xposition Yposition Zposition Zrotation Yrotation Xrotation
  JOINT abdomen
  {
    OFFSET 0 20.6881 -0.73152
    CHANNELS 3 Zrotation Xrotation Yrotation
    JOINT chest
    {
      OFFSET 0 11.7043 -0.48768
      CHANNELS 3 Zrotation Xrotation Yrotation
      JOINT neck
      {
        OFFSET 0 22.1894 -2.19456
        CHANNELS 3 Zrotation Xrotation Yrotation
        JOINT head
        {
          OFFSET -0.24384 7.07133 1.2192
          CHANNELS 3 Zrotation Xrotation Yrotation
          JOINT leftEye
          {
            OFFSET 4.14528 8.04674 8.04672
            CHANNELS 3 Zrotation Xrotation Yrotation
            End Site
            {
              OFFSET 1 0 0
            }
          }
          JOINT rightEye
          {
            OFFSET -3.6576 8.04674 8.04672
            CHANNELS 3 Zrotation Xrotation Yrotation
            End Site
            {
              OFFSET 1 0 0
            }
          }
        }
      }
      JOINT rCollar
      {
        OFFSET -2.68224 19.2634 -4.8768
        CHANNELS 3 Zrotation Xrotation Yrotation
        JOINT rShldr
        {
          OFFSET -8.77824 -1.95073 1.46304
          CHANNELS 3 Zrotation Xrotation Yrotation
          JOINT rForeArm
          {
            OFFSET -28.1742 -1.7115 0.48768
            CHANNELS 3 Zrotation Xrotation Yrotation
            JOINT rHand
            {
              OFFSET -22.5879 0.773209 7.07136
              CHANNELS 3 Zrotation Xrotation Yrotation
              JOINT rThumb1
              {
                OFFSET -1.2192 -0.487915 3.41376
                CHANNELS 3 Zrotation Xrotation Yrotation
                JOINT rThumb2
                {
                  OFFSET -3.37035 -0.52449 3.41376
                  CHANNELS 3 Zrotation Xrotation Yrotation
                  End Site
                  {
                    OFFSET -1.78271 -1.18214 1.43049
                  }
                }
              }
              JOINT rIndex1
              {
                OFFSET -7.75947 0.938293 5.60832
                CHANNELS 3 Zrotation Xrotation Yrotation
                JOINT rIndex2
                {
                  OFFSET -2.54057 -0.884171 1.56538
                  CHANNELS 3 Zrotation Xrotation Yrotation
                  End Site
                  {
                    OFFSET -1.62519 -0.234802 1.16502
                  }
                }
              }
              JOINT rMid1
              {
                OFFSET -8.24714 1.18213 3.41376
                CHANNELS 3 Zrotation Xrotation Yrotation
                JOINT rMid2
                {
                  OFFSET -3.10165 -0.590103 1.0647
                  CHANNELS 3 Zrotation Xrotation Yrotation
                  End Site
                  {
                    OFFSET -2.48547 -0.328903 0.83742
                  }
                }
              }
              JOINT rRing1
              {
                OFFSET -8.82822 0.546677 1.51678
                CHANNELS 3 Zrotation Xrotation Yrotation
                JOINT rRing2
                {
                  OFFSET -2.60934 -0.819778 -0.0198488
                  CHANNELS 3 Zrotation Xrotation Yrotation
                  End Site
                  {
                    OFFSET -2.33842 -0.294052 0.168128
                  }
                }
              }
              JOINT rPinky1
              {
                OFFSET -8.27202 -0.0477905 -0.4584
                CHANNELS 3 Zrotation Xrotation Yrotation
                JOINT rPinky2
                {
                  OFFSET -1.82734 -0.647385 -0.700984
                  CHANNELS 3 Zrotation Xrotation Yrotation
                  End Site
                  {
                    OFFSET -1.69225 -0.51767 -0.607171
                  }
                }
              }
            }
          }
        }
      }
      JOINT lCollar
      {
        OFFSET 2.68224 19.2634 -4.8768
        CHANNELS 3 Zrotation Xrotation Yrotation
        JOINT lShldr
        {
          OFFSET 8.77824 -1.95073 1.46304
          CHANNELS 3 Zrotation Xrotation Yrotation
          JOINT lForeArm
          {
            OFFSET 28.1742 -1.7115 0.48768
            CHANNELS 3 Zrotation Xrotation Yrotation
            JOINT lHand
            {
              OFFSET 22.5879 0.773209 7.07136
              CHANNELS 3 Zrotation Xrotation Yrotation
              JOINT lThumb1
              {
                OFFSET 1.2192 -0.487915 3.41376
                CHANNELS 3 Zrotation Xrotation Yrotation
                JOINT lThumb2
                {
                  OFFSET 3.37035 -0.52449 3.41376
                  CHANNELS 3 Zrotation Xrotation Yrotation
                  End Site
                  {
                    OFFSET 1.78271 -1.18214 1.43049
                  }
                }
              }
              JOINT lIndex1
              {
                OFFSET 7.75947 0.938293 5.60832
                CHANNELS 3 Zrotation Xrotation Yrotation
                JOINT lIndex2
                {
                  OFFSET 2.54057 -0.884171 1.56538
                  CHANNELS 3 Zrotation Xrotation Yrotation
                  End Site
                  {
                    OFFSET 1.62519 -0.234802 1.16502
                  }
                }
              }
              JOINT lMid1
              {
                OFFSET 8.24714 1.18213 3.41376
                CHANNELS 3 Zrotation Xrotation Yrotation
                JOINT lMid2
                {
                  OFFSET 3.10165 -0.590103 1.0647
                  CHANNELS 3 Zrotation Xrotation Yrotation
                  End Site
                  {
                    OFFSET 2.48547 -0.328903 0.83742
                  }
                }
              }
              JOINT lRing1
              {
                OFFSET 8.82822 0.546677 1.51678
                CHANNELS 3 Zrotation Xrotation Yrotation
                JOINT lRing2
                {
                  OFFSET 2.60934 -0.819778 -0.0198488
                  CHANNELS 3 Zrotation Xrotation Yrotation
                  End Site
                  {
                    OFFSET 2.33842 -0.294052 0.168128
                  }
                }
              }
              JOINT lPinky1
              {
                OFFSET 8.27202 -0.0477905 -0.4584
                CHANNELS 3 Zrotation Xrotation Yrotation
                JOINT lPinky2
                {
                  OFFSET 1.82734 -0.647385 -0.700984
                  CHANNELS 3 Zrotation Xrotation Yrotation
                  End Site
                  {
                    OFFSET 1.69225 -0.51767 -0.607171
                  }
                }
              }
            }
          }
        }
      }
    }
  }
  JOINT rButtock
  {
    OFFSET -8.77824 4.35084 1.2192
    CHANNELS 3 Zrotation Xrotation Yrotation
    JOINT rThigh
    {
      OFFSET 0 -1.70687 -2.19456
      CHANNELS 3 Zrotation Xrotation Yrotation
      JOINT rShin
      {
        OFFSET 0 -36.8199 0.73152
        CHANNELS 3 Zrotation Xrotation Yrotation
        JOINT rFoot
        {
          OFFSET 0.73152 -45.1104 -5.12064
          CHANNELS 3 Zrotation Xrotation Yrotation
          End Site
          {
            OFFSET -1.1221 -3.69964 12.103
          }
        }
      }
    }
  }
  JOINT lButtock
  {
    OFFSET 8.77824 4.35084 1.2192
    CHANNELS 3 Zrotation Xrotation Yrotation
    JOINT lThigh
    {
      OFFSET 0 -1.70687 -2.19456
      CHANNELS 3 Zrotation Xrotation Yrotation
      JOINT lShin
      {
        OFFSET 0 -36.8199 0.73152
        CHANNELS 3 Zrotation Xrotation Yrotation
        JOINT lFoot
        {
          OFFSET -0.73152 -45.1104 -5.12064
          CHANNELS 3 Zrotation Xrotation Yrotation
          End Site
          {
            OFFSET 1.1221 -3.69964 12.103
          }
        }
      }
    }
  }
}
MOTION
Frames:	6
Frame Time:	0.03333
-0.011999999696854502 51.20980143547058 0.025000001187436283 -11.0479097366333 -54.13929748535156 10.708695411682129 -0.7802063822746277 11.100295066833496 15.29249382019043 -2.023627996444702 -12.132697105407715 3.95760178565979 -1.3524320125579834 13.681906700134277 9.02913761138916 9.260589599609375 -23.338809967041016 19.816383361816406 -0.0 0.0 -0.0 -0.0 0.0 -0.0 -0.0 0.0 -0.0 42.594112396240234 80.38341522216797 24.777799606323242 -26.28379249572754 -45.7025032043457 94.91829681396484 -31.923439025878906 -77.46068572998047 -39.23626708984375 -0.0 0.0 -0.0 -0.0 0.0 -0.0 -0.0 0.0 -0.0 7.73087739944458 5.47489595413208 0.41732463240623474 -0.0 0.0 -0.0 2.9054994583129883 0.9650753736495972 0.10300876200199127 -0.0 0.0 -0.0 10.278595924377441 0.7317469120025635 0.026285577565431595 -0.0 0.0 -0.0 2.221662759780884 -0.7335850596427917 -0.20831839740276337 -0.0 0.0 -0.0 -60.93980407714844 2.87884521484375 -38.622406005859375 28.194204330444336 -31.93379020690918 -70.34699249267578 0.802669107913971 24.571998596191406 -3.6844894886016846 -0.0 0.0 -0.0 -0.0 0.0 -0.0 -0.0 0.0 -0.0 -7.73087739944458 5.47489595413208 -0.41732463240623474 -0.0 0.0 -0.0 -2.9054994583129883 0.9650753736495972 -0.10300876200199127 -0.0 0.0 -0.0 -10.278595924377441 0.7317469120025635 -0.026285577565431595 -0.0 0.0 -0.0 -2.221662759780884 -0.7335850596427917 0.20831839740276337 -0.0 0.0 -0.0 -29.55889892578125 -27.638303756713867 -33.06689453125 -4.565091133117676 81.91441345214844 7.4454665184021 -11.657523155212402 -26.708091735839844 -24.414405822753906 -0.0 0.0 -0.0 69.79640197753906 -42.908897399902344 67.55170440673828 3.2782950401306152 74.7221908569336 -3.0035524368286133 -0.2070792019367218 -0.019011272117495537 -2.8906331062316895
-0.020399999630171806 51.18640065193176 0.050000002374872565 -11.139287948608398 -54.16120529174805 10.77199935913086 -0.716376781463623 11.119677543640137 15.281623840332031 -2.0464422702789307 -12.165010452270508 3.9524052143096924 -1.3401850461959839 13.731805801391602 9.012310028076172 9.24299430847168 -23.403806686401367 19.78348731994629 -0.0 0.0 -0.0 -0.0 0.0 -0.0 -0.0 0.0 -0.0 42.61823654174805 80.38643646240234 24.749631881713867 -26.282705307006836 -45.70499801635742 94.92288970947266 -31.9072265625 -77.4590072631836 -39.221435546875 -0.0 0.0 -0.0 -0.0 0.0 -0.0 -0.0 0.0 -0.0 7.73087739944458 5.47489595413208 0.41732463240623474 -0.0 0.0 -0.0 2.9054994583129883 0.9650753736495972 0.10300876200199127 -0.0 0.0 -0.0 10.278595924377441 0.7317469120025635 0.026285577565431595 -0.0 0.0 -0.0 2.221662759780884 -0.7335850596427917 -0.20831839740276337 -0.0 0.0 -0.0 -60.921897888183594 2.8809709548950195 -38.61149597167969 28.190593719482422 -31.90498924255371 -70.30059051513672 0.8117396831512451 24.699804306030273 -3.7062265872955322 -0.0 0.0 -0.0 -0.0 0.0 -0.0 -0.0 0.0 -0.0 -7.73087739944458 5.47489595413208 -0.41732463240623474 -0.0 0.0 -0.0 -2.9054994583129883 0.9650753736495972 -0.10300876200199127 -0.0 0.0 -0.0 -10.278595924377441 0.7317469120025635 -0.026285577565431595 -0.0 0.0 -0.0 -2.221662759780884 -0.7335850596427917 0.20831839740276337 -0.0 0.0 -0.0 -29.502092361450195 -27.63381004333496 -32.99399948120117 -4.573071479797363 81.93049621582031 7.4569926261901855 -11.662692070007324 -26.685697555541992 -24.436298370361328 -0.0 0.0 -0.0 69.88328552246094 -42.95499801635742 67.52729034423828 3.31180739402771 74.84711456298828 -3.041748285293579 -0.19377103447914124 0.0046430011279881 -2.745232105255127
-0.02389999972365331 51.164400577545166 0.07700000132899731 -11.193509101867676 -54.18989944458008 10.793204307556152 -0.6758638620376587 11.153403282165527 15.265896797180176 -2.0633623600006104 -12.200296401977539 3.9461629390716553 -1.317793369293213 13.797347068786621 8.993612289428711 9.188298225402832 -23.501888275146484 19.7417049407959 -0.0 0.0 -0.0 -0.0 0.0 -0.0 -0.0 0.0 -0.0 42.58839416503906 80.402587890625 24.778305053710938 -26.282686233520508 -45.70500564575195 94.9220962524414 -31.840164184570312 -77.46780395507812 -39.169944763183594 -0.0 0.0 -0.0 -0.0 0.0 -0.0 -0.0 0.0 -0.0 7.73087739944458 5.47489595413208 0.41732463240623474 -0.0 0.0 -0.0 2.9054994583129883 0.9650753736495972 0.10300876200199127 -0.0 0.0 -0.0 10.278595924377441 0.7317469120025635 0.026285577565431595 -0.0 0.0 -0.0 2.221662759780884 -0.7335850596427917 -0.20831839740276337 -0.0 0.0 -0.0 -60.891597747802734 2.8754570484161377 -38.597103118896484 28.18670654296875 -31.873592376708984 -70.2499008178711 0.8186941742897034 24.797101974487305 -3.72283673286438 -0.0 0.0 -0.0 -0.0 0.0 -0.0 -0.0 0.0 -0.0 -7.73087739944458 5.47489595413208 -0.41732463240623474 -0.0 0.0 -0.0 -2.9054994583129883 0.9650753736495972 -0.10300876200199127 -0.0 0.0 -0.0 -10.278595924377441 0.7317469120025635 -0.026285577565431595 -0.0 0.0 -0.0 -2.221662759780884 -0.7335850596427917 0.20831839740276337 -0.0 0.0 -0.0 -29.462797164916992 -27.64229965209961 -32.90840148925781 -4.588078022003174 81.95598602294922 7.4749908447265625 -11.667101860046387 -26.656396865844727 -24.461294174194336 -0.0 0.0 -0.0 69.93709564208984 -43.014198303222656 67.47840118408203 3.3447718620300293 74.9710922241211 -3.0801405906677246 -0.17995105683803558 0.038322702050209045 -2.578551769256592
-0.02209999965998577 51.14330053329468 0.10500000207684934 -11.195505142211914 -54.23469924926758 10.766701698303223 -0.6936027407646179 11.203113555908203 15.249484062194824 -2.0604140758514404 -12.235301971435547 3.941431760787964 -1.3021478652954102 13.863006591796875 8.984125137329102 9.136503219604492 -23.61330223083496 19.72039794921875 -0.0 0.0 -0.0 -0.0 0.0 -0.0 -0.0 0.0 -0.0 42.44438934326172 80.452880859375 24.920495986938477 -26.28270721435547 -45.70539474487305 94.92188262939453 -31.998342514038086 -77.4867172241211 -39.31700897216797 -0.0 0.0 -0.0 -0.0 0.0 -0.0 -0.0 0.0 -0.0 7.73087739944458 5.47489595413208 0.41732463240623474 -0.0 0.0 -0.0 2.9054994583129883 0.9650753736495972 0.10300876200199127 -0.0 0.0 -0.0 10.278595924377441 0.7317469120025635 0.026285577565431595 -0.0 0.0 -0.0 2.221662759780884 -0.7335850596427917 -0.20831839740276337 -0.0 0.0 -0.0 -60.86249542236328 2.858410596847534 -38.58970260620117 28.181398391723633 -31.832996368408203 -70.18450164794922 0.8149617910385132 24.74490737915039 -3.7139360904693604 -0.0 0.0 -0.0 -0.0 0.0 -0.0 -0.0 0.0 -0.0 -7.73087739944458 5.47489595413208 -0.41732463240623474 -0.0 0.0 -0.0 -2.9054994583129883 0.9650753736495972 -0.10300876200199127 -0.0 0.0 -0.0 -10.278595924377441 0.7317469120025635 -0.026285577565431595 -0.0 0.0 -0.0 -2.221662759780884 -0.7335850596427917 0.20831839740276337 -0.0 0.0 -0.0 -29.479494094848633 -27.66559410095215 -32.827293395996094 -4.616730213165283 82.00011444091797 7.506125450134277 -11.664240837097168 -26.627187728881836 -24.477008819580078 -0.0 0.0 -0.0 69.93338775634766 -43.07959747314453 67.40990447998047 3.3778786659240723 75.09369659423828 -3.119359254837036 -0.16561324894428253 0.0813569724559784 -2.3914730548858643
-0.000699999691278208 51.118797063827515 0.13500000350177288 -11.162495613098145 -54.29990005493164 10.718597412109375 -0.733552873134613 11.252622604370117 15.23776912689209 -2.0513622760772705 -12.262889862060547 3.9380502700805664 -1.2942551374435425 13.909299850463867 8.982317924499512 9.108027458190918 -23.69619369506836 19.717802047729492 -0.0 0.0 -0.0 -0.0 0.0 -0.0 -0.0 0.0 -0.0 42.33330535888672 80.50548553466797 25.030311584472656 -26.282503128051758 -45.70609664916992 94.92279815673828 -32.1273307800293 -77.5290756225586 -39.454612731933594 -0.0 0.0 -0.0 -0.0 0.0 -0.0 -0.0 0.0 -0.0 7.73087739944458 5.47489595413208 0.41732463240623474 -0.0 0.0 -0.0 2.9054994583129883 0.9650753736495972 0.10300876200199127 -0.0 0.0 -0.0 10.278595924377441 0.7317469120025635 0.026285577565431595 -0.0 0.0 -0.0 2.221662759780884 -0.7335850596427917 -0.20831839740276337 -0.0 0.0 -0.0 -60.83568572998047 2.844996213912964 -38.58549880981445 28.176006317138672 -31.79109001159668 -70.11748504638672 0.8234556317329407 24.652835845947266 -3.7015764713287354 -0.0 0.0 -0.0 -0.0 0.0 -0.0 -0.0 0.0 -0.0 -7.73087739944458 5.47489595413208 -0.41732463240623474 -0.0 0.0 -0.0 -2.9054994583129883 0.9650753736495972 -0.10300876200199127 -0.0 0.0 -0.0 -10.278595924377441 0.7317469120025635 -0.026285577565431595 -0.0 0.0 -0.0 -2.221662759780884 -0.7335850596427917 0.20831839740276337 -0.0 0.0 -0.0 -29.522994995117188 -27.708894729614258 -32.74569320678711 -4.656688213348389 82.05961608886719 7.548168659210205 -11.656400680541992 -26.601299285888672 -24.483299255371094 -0.0 0.0 -0.0 69.91079711914062 -43.156307220458984 67.33778381347656 3.4130170345306396 75.2215805053711 -3.1613173484802246 -0.1506543606519699 0.13706019520759583 -2.179246664047241
0.02629999926284654 51.08950138092041 0.15000000421423465 -11.125383377075195 -54.378997802734375 10.675616264343262 -0.770462155342102 11.277499198913574 15.245386123657227 -2.0476861000061035 -12.27098274230957 3.938113212585449 -1.3140517473220825 13.904694557189941 8.992389678955078 9.153427124023438 -23.686304092407227 19.746898651123047 -0.0 0.0 -0.0 -0.0 0.0 -0.0 -0.0 0.0 -0.0 42.4235954284668 80.53319549560547 24.938310623168945 -26.281700134277344 -45.70719528198242 94.92669677734375 -32.303470611572266 -77.59552764892578 -39.648406982421875 -0.0 0.0 -0.0 -0.0 0.0 -0.0 -0.0 0.0 -0.0 7.73087739944458 5.47489595413208 0.41732463240623474 -0.0 0.0 -0.0 2.9054994583129883 0.9650753736495972 0.10300876200199127 -0.0 0.0 -0.0 10.278595924377441 0.7317469120025635 0.026285577565431595 -0.0 0.0 -0.0 2.221662759780884 -0.7335850596427917 -0.20831839740276337 -0.0 0.0 -0.0 -60.8197021484375 2.8562116622924805 -38.58919906616211 28.171092987060547 -31.75390625 -70.0575942993164 0.8259161114692688 24.599641799926758 -3.6939218044281006 -0.0 0.0 -0.0 -0.0 0.0 -0.0 -0.0 0.0 -0.0 -7.73087739944458 5.47489595413208 -0.41732463240623474 -0.0 0.0 -0.0 -2.9054994583129883 0.9650753736495972 -0.10300876200199127 -0.0 0.0 -0.0 -10.278595924377441 0.7317469120025635 -0.026285577565431595 -0.0 0.0 -0.0 -2.221662759780884 -0.7335850596427917 0.20831839740276337 -0.0 0.0 -0.0 -29.579004287719727 -27.779903411865234 -32.665103912353516 -4.709930896759033 82.1332778930664 7.602840900421143 -11.643683433532715 -26.588001251220703 -24.472997665405273 -0.0 0.0 -0.0 69.910400390625 -43.24190139770508 67.29769134521484 3.4523868560791016 75.36961364746094 -3.2077524662017822 -0.13195428252220154 0.21806159615516663 -1.9369502067565918
